<?xml version="1.0" encoding="utf-8"?>
<!-- Svg Vector Icons : http://www.onlinewebfonts.com/icon -->
<!DOCTYPE svg PUBLIC "-//W3C//DTD SVG 1.1//EN" "http://www.w3.org/Graphics/SVG/1.1/DTD/svg11.dtd">
<svg version="1.1" xmlns="http://www.w3.org/2000/svg" xmlns:xlink="http://www.w3.org/1999/xlink" x="0px" y="0px" viewBox="0 0 1000 1000" enable-background="new 0 0 1000 1000" xml:space="preserve" fill="#389CFA">
<metadata> Svg Vector Icons : http://www.onlinewebfonts.com/icon </metadata>
<g><path d="M990,562.1V437.9l-148.6-44.4c-6.5-20.8-14.8-40.7-24.8-59.6l73.8-136.5l-87.8-87.8l-136.5,73.7c-18.9-10-38.9-18.3-59.7-24.8L562.1,10H437.9l-44.3,148.4c-20.9,6.5-40.9,14.8-60,24.8l-136.2-73.6l-87.8,87.8l73.4,136c-10.1,19.2-18.6,39.4-25.1,60.4L10,437.9v124.2l147.8,44.1c6.5,21.1,15,41.4,25.2,60.7l-73.3,135.7l87.8,87.8l135.7-73.3c19.3,10.1,39.5,18.6,60.7,25.1L437.9,990h124.2l44.2-148c21-6.5,41.2-15,60.3-25.1l136,73.5l87.8-87.8l-73.6-136.3c10-19,18.3-39.1,24.8-59.9L990,562.1z M499.7,687.9c-103.6,0-187.7-84-187.7-187.7c0-103.6,84-187.7,187.7-187.7c103.6,0,187.7,84,187.7,187.7C687.4,603.9,603.3,687.9,499.7,687.9z"/></g>
</svg>
